<svg viewBox="0 0 1280 140" preserveAspectRatio="none" xmlns="http://www.w3.org/2000/svg"><g fill="#040129"><path class="elementor-shape-fill" d="M1214.323 66.051h-79.863l-70.793 18.224-66.285-10.933-83.672 22.953-97.601-7.328-73.664 22.125-76.961 8.475-82.664-13.934-76.926 11.832-94.453-7.666-90.137 17.059-78.684-9.731-86.363 13.879-95.644 3.125L0 126.717V0h1280l-.001 35.844z" fill-opacity=".5"/><path class="elementor-shape-fill" d="M0 0h1280v.006l-70.676 36.578-74.863 4.641-70.793 23.334-66.285-11.678-83.672 29.618-97.602-7.07-63.664 21.421-76.961 12.649-91.664-20.798-77.926 17.66-94.453-7.574-90.137 21.595-78.683-9.884-86.363 16.074-95.645 6.211L0 127.905z"/></g></svg>